<?xml version="1.0" encoding="UTF-8"?>
<!DOCTYPE svg PUBLIC "-//W3C//DTD SVG 1.1//EN" "http://www.w3.org/Graphics/SVG/1.1/DTD/svg11.dtd">
<!-- Creator: CorelDRAW X7 -->
<svg xmlns="http://www.w3.org/2000/svg" xml:space="preserve" width="50mm" height="18mm" version="1.1" style="shape-rendering:geometricPrecision; text-rendering:geometricPrecision; image-rendering:optimizeQuality; fill-rule:evenodd; clip-rule:evenodd"
viewBox="0 0 5000 1800"
 xmlns:xlink="http://www.w3.org/1999/xlink">
 <defs>
  <style type="text/css">
   <![CDATA[
    .fil6 {fill:#017E7D}
    .fil7 {fill:#02A6A1}
    .fil5 {fill:#040404}
    .fil9 {fill:#177776}
    .fil2 {fill:#30908C}
    .fil1 {fill:#337C79}
    .fil11 {fill:#4D7675}
    .fil10 {fill:#508F8D}
    .fil4 {fill:#E4FFFF}
    .fil3 {fill:#F5F7E9}
    .fil8 {fill:#FEFEFE}
    .fil0 {fill:white}
   ]]>
  </style>
 </defs>
 <g id="Layer_x0020_1">
  <metadata id="CorelCorpID_0Corel-Layer"/>
  <rect class="fil0" x="17" y="19" width="4976" height="1776"/>
  <path class="fil1" d="M765 1587c0,-2 3,-2 4,-4l-26 2c-16,38 0,18 -17,27l-13 -27c-5,8 -3,-3 -6,17 -1,4 0,13 0,18l62 0c-1,-1 -3,-2 -4,-3 0,0 -2,-2 -3,-3l-4 -8c-1,-1 1,-4 -6,-10l13 -9z"/>
  <path class="fil1" d="M872 1614c11,-3 6,1 24,6l0 -35c-25,8 -9,4 -35,0l0 34c38,0 -26,6 11,-5z"/>
  <path class="fil1" d="M393 1619l30 1c-4,-34 8,-32 -22,-37 -15,18 -6,14 -8,36z"/>
  <path class="fil1" d="M634 1614l0 -24 -15 -1c-14,-2 2,3 -20,-5l0 30 35 0z"/>
  <path class="fil1" d="M387 1620c-7,-26 -6,-5 -1,-36 -31,14 -3,12 -34,0l0 36c26,-9 6,-9 35,0z"/>
  <path class="fil1" d="M817 1620c18,-5 21,-4 38,0 -10,-40 -9,-30 -18,-36 -17,12 -9,4 -20,36z"/>
  <path class="fil1" d="M558 1620c21,-6 19,-4 40,0 -8,-19 -5,-22 -20,-37 -15,11 -13,17 -20,37z"/>
  <path class="fil1" d="M1249 1583c-11,12 -3,-3 -9,13 -1,3 -1,14 -1,18l31 3c-9,-26 13,-27 -21,-34z"/>
  <path class="fil1" d="M466 1613l-18 -29c-16,9 -15,14 -21,36 27,-7 21,3 39,-7z"/>
  <path class="fil1" d="M466 1613c20,8 17,12 36,1 -7,-17 8,-3 -8,-9 -8,-4 -9,15 -12,0 -2,-12 6,-7 18,-15 -23,-16 -30,-1 -34,23z"/>
  <path class="fil1" d="M1051 1602c13,-12 15,-4 17,-10 1,-2 3,-1 4,-2l-17 -5c-2,0 -11,2 -15,3l0 28c22,5 15,8 32,-2 -6,-17 9,-3 -7,-9 -6,-3 -5,8 -14,-3z"/>
  <path class="fil1" d="M990 1590c-7,-4 -22,-6 -32,-1l14 30c15,-9 9,-12 18,-29z"/>
  <path class="fil1" d="M1096 1620l18 -36c-23,6 -15,6 -38,1l20 35z"/>
  <polygon class="fil1" points="1290,1620 1304,1583 1273,1585 "/>
  <path class="fil1" d="M703 1616c-9,-30 -6,-6 -12,-22l-19 -6c7,24 9,14 11,20 5,13 8,-10 -1,6 -1,0 -3,4 -4,3 0,-2 -3,2 -4,4l29 -5z"/>
  <path class="fil2" d="M1199 1616c-10,-10 -14,18 -6,-32 -29,13 -6,12 -35,0l-1 30 16 2c1,0 3,0 4,0l57 4c-5,-20 -3,-21 -15,-36 -20,8 -15,10 -20,32z"/>
  <path class="fil2" d="M1308 1619c16,-4 20,-2 36,1 -9,-44 -10,-31 -19,-36 -6,5 -10,-5 -17,35z"/>
  <path class="fil2" d="M1143 1590c0,-1 -2,-1 -3,-4 0,-2 -2,-2 -3,-3 -16,12 -15,17 -19,37 8,-2 20,-2 23,-2 14,-2 7,-1 16,-7l-14 -21z"/>
  <path class="fil3" d="M900 1479c-13,-47 24,-82 -58,-68l4 67c14,0 21,-5 23,-17 0,-3 1,-3 2,-5 8,23 2,22 29,23z"/>
  <path class="fil3" d="M752 502l15 36c15,-5 25,-15 34,-41 13,-40 -17,-14 -25,-6 -12,-22 1,-16 -18,-33 -33,13 -48,97 -6,44z"/>
  <path class="fil3" d="M940 1479c34,-1 9,-3 36,-11 25,10 -3,7 33,12 -4,-17 -9,-35 -14,-50 -9,-26 -4,-22 -33,-21l-22 70z"/>
  <path class="fil3" d="M192 495c5,21 23,49 36,59 16,-12 11,-6 5,-29 18,7 13,9 35,5l-34 -50c-25,2 -22,7 -42,15z"/>
  <path class="fil3" d="M878 624c16,16 16,8 24,16 15,13 4,12 15,32 12,-7 44,-48 33,-66 -10,-15 -63,10 -72,18z"/>
  <path class="fil3" d="M693 501c16,-1 10,3 18,-10 1,-2 7,-19 8,-22 9,-26 14,-23 -8,-29 -11,15 -26,46 -18,61z"/>
  <polygon class="fil3" points="4004,901 4033,902 4020,863 "/>
  <path class="fil3" d="M88 1696l27 0 -9 -49c-12,11 -16,31 -18,49z"/>
  <path class="fil4" d="M345 472c9,16 30,36 52,44 1,-5 0,-17 2,-20 4,-11 -5,3 6,-8 35,-35 -11,20 11,-10 -7,-15 10,-2 -12,-15 28,4 14,9 27,-8 -12,-14 -42,-25 -60,-28 -16,24 3,10 -18,33 -4,5 -5,6 -8,12z"/>
  <path class="fil4" d="M1141 1214c-1,23 2,18 -16,22 -14,-23 1,-29 -12,-52l-11 1c-22,43 -2,81 54,65 3,-10 7,-23 7,-36 0,-3 -1,-15 -1,-18 -3,-14 -1,-4 -7,-12 -22,9 -11,-3 -14,30z"/>
  <path class="fil4" d="M609 227l1 69c33,-8 11,0 28,-22 21,0 15,4 37,0 -23,-39 -40,-57 -66,-47z"/>
  <path class="fil4" d="M649 1208c6,-4 2,-2 12,-5 27,-8 15,3 21,-13 -14,-10 -34,-7 -55,-3l0 65c34,6 14,1 23,-7 22,-17 16,-1 19,-12 1,-2 4,-1 5,-2 -10,-20 -17,-4 -25,-23z"/>
  <path class="fil4" d="M678 231l33 9c-9,14 -21,-5 -27,20 24,12 38,1 49,-17 -8,-22 -13,-23 -38,-23 12,-9 16,-2 23,-18 -27,-17 -52,2 -40,29z"/>
  <path class="fil4" d="M890 1184c-6,9 -4,-2 -7,18 -2,15 -2,41 7,53 22,-5 15,-5 15,-35 0,-32 7,-31 -15,-36z"/>
  <path class="fil4" d="M342 1202c-3,16 -1,41 6,53l12 -2c5,-13 4,-24 4,-40 -1,-28 4,-24 -16,-29 -5,9 -3,-2 -6,18z"/>
  <path class="fil4" d="M701 1185c-6,10 -6,2 -6,35l6 35c24,-5 17,-4 17,-35 0,-32 7,-31 -17,-35z"/>
  <path class="fil4" d="M1244 1207c4,21 -1,7 11,12 24,-37 -6,-35 -6,-35 -2,3 -9,4 -5,23z"/>
  <path class="fil5" d="M1734 536l14 99 46 1 19 -99 14 99 46 -1 -28 -168 -57 -1 -14 92c-13,-19 -14,-61 -19,-91l-57 0 -28 170 45 -4 19 -97z"/>
  <path class="fil5" d="M3653 804c63,-30 84,74 35,89 -62,19 -82,-67 -35,-89zm63 129c16,-27 32,-19 41,-61 25,-105 -95,-143 -150,-92 -36,34 -30,117 10,141 11,7 25,10 38,15 26,9 10,-1 25,24 11,21 32,30 67,23l1 -34c-21,-14 -15,4 -32,-16z"/>
  <path class="fil5" d="M2887 806c35,-2 70,-4 77,31 7,40 -20,54 -56,53l-21 -1 0 -83zm-46 125c81,13 170,3 170,-83 0,-86 -89,-97 -170,-83l0 166z"/>
  <path class="fil5" d="M3433 509c37,-2 71,-2 77,33 6,36 -17,53 -51,52l-26 -1 0 -84zm-46 125c80,13 170,4 170,-83 0,-86 -89,-96 -170,-83l0 166z"/>
  <path class="fil5" d="M3745 549l74 87 37 0 0 -170 -47 0 0 86c-15,-9 -36,-36 -49,-51 -26,-30 -9,-35 -64,-35l0 170 47 0 2 -87z"/>
  <path class="fil5" d="M2166 593l0 -84c40,-2 78,-1 78,42 0,44 -38,44 -78,42zm-46 41l20 3 58 -1c128,0 147,-205 -78,-168l0 166z"/>
  <path class="fil5" d="M4530 848c58,45 49,90 112,83l0 -168 -46 1 0 84c-14,-8 -38,-37 -50,-52 -20,-26 -21,-34 -64,-34l0 171 47 -3 1 -82z"/>
  <polygon class="fil5" points="2403,869 2470,871 2470,933 2516,933 2516,762 2470,762 2470,825 2403,825 2403,763 2357,765 2357,931 2403,932 "/>
  <polygon class="fil5" points="4457,573 4525,573 4525,635 4571,635 4571,467 4525,468 4525,530 4457,527 4457,466 4411,466 4411,636 4457,636 4457,594 "/>
  <polygon class="fil5" points="3145,572 3213,574 3213,636 3259,636 3259,466 3213,466 3213,529 3145,529 3145,467 3100,468 3099,635 3145,635 "/>
  <path class="fil5" d="M2380 504c58,-4 58,35 0,30l0 -30zm98 132c-7,-22 -16,-34 -23,-55 -12,-31 2,-15 11,-44 26,-84 -82,-71 -132,-71l0 170 46 0 0 -62c30,-3 27,-5 50,62l48 0z"/>
  <path class="fil5" d="M4061 799l37 3c5,11 5,17 1,28l-38 2 0 -33zm98 133c-36,-103 -29,-45 -13,-97 27,-83 -74,-75 -131,-72l0 169 46 -1 0 -62c28,0 27,-7 50,63l48 0z"/>
  <path class="fil5" d="M3120 890c25,-44 77,-70 78,-128l-149 0 0 43 78 1c-23,41 -78,66 -78,127l149 0 0 -43 -78 0z"/>
  <path class="fil5" d="M3805 768c0,81 -20,172 82,170 98,-2 78,-88 78,-176l-47 0c0,36 9,101 -8,124 -17,14 -34,13 -51,0 -17,-24 -7,-88 -8,-124l-46 6z"/>
  <path class="fil5" d="M2956 562c2,-9 5,-20 8,-27 4,-12 -1,-1 6,-11l19 38 -33 0zm-72 74c65,2 37,7 59,-31l53 -1c35,10 -24,33 66,32l-61 -170 -57 1 -60 169z"/>
  <path class="fil5" d="M2595 521c0,-2 2,-2 3,-3l13 44 -33 0 17 -41zm-51 115c27,-11 1,-16 27,-32l53 2c18,30 -8,31 60,30l-61 -170 -57 1 -60 169 38 0z"/>
  <path class="fil5" d="M1977 562c2,-9 4,-20 8,-27l11 -17 13 44 -32 0zm-72 74c64,2 36,7 59,-31l53 -1c35,10 -24,33 65,32l-60 -170 -57 1 -60 169z"/>
  <path class="fil5" d="M2233 814l13 44 -32 0c5,-21 6,-31 19,-44zm-92 118c86,2 29,-10 65,-31l48 0c35,21 -21,34 65,31l-60 -169 -57 1 -61 168z"/>
  <path class="fil5" d="M4284 522l17 40 -34 -1 17 -39zm-48 114c25,-15 -1,-20 27,-32 63,-12 58,22 64,32l46 0 -62 -170 -55 1 -60 169 40 0z"/>
  <path class="fil5" d="M4357 813l15 45 -33 0 18 -45zm-44 118c14,-23 0,-22 21,-30 64,-12 58,20 64,31l47 0 -63 -169 -54 0 -60 170 45 -2z"/>
  <path class="fil5" d="M2806 594c-27,18 -60,2 -88,-7l2 42c45,18 119,22 131,-26 21,-82 -75,-50 -85,-94 24,-16 49,-6 73,2l1 -36c-43,-23 -112,-20 -120,29 -12,78 78,46 86,90z"/>
  <polygon class="fil5" points="2613,806 2702,805 2702,762 2566,762 2567,933 2613,933 2613,881 2677,877 2678,838 2613,834 "/>
  <path class="fil5" d="M3991 467c14,22 27,52 41,76 25,45 24,32 24,93l46 -1c0,-60 0,-47 25,-92 13,-24 30,-52 40,-77 -48,0 -51,-13 -85,74 -18,-14 -28,-49 -37,-74l-54 1z"/>
  <polygon class="fil5" points="2018,807 2018,933 2064,933 2064,806 2115,804 2115,763 1967,763 1967,804 "/>
  <path class="fil5" d="M1682 932l135 0 0 -42c-33,0 -58,2 -89,-3l0 -125 -46 0 0 170z"/>
  <path class="fil5" d="M3338 933l136 0 0 -43c-34,0 -59,3 -90,-2l1 -126 -47 0 0 171z"/>
  <polygon class="fil5" points="3600,636 3647,636 3647,466 3600,466 "/>
  <polygon class="fil5" points="3241,933 3287,933 3287,911 3287,784 3287,762 3241,762 3241,927 "/>
  <polygon class="fil5" points="1853,932 1899,930 1899,763 1880,762 1874,762 1853,763 "/>
  <polygon class="fil5" points="2745,932 2791,932 2791,763 2745,765 "/>
  <polygon class="fil5" points="3907,636 3952,634 3952,468 3933,466 3928,466 3907,467 "/>
  <polygon class="fil5" points="4199,852 4230,850 4235,762 4193,762 "/>
  <path class="fil6" d="M2351 1302l210 246 106 -1 -1 -477 -132 0 -3 241c-15,-8 -112,-124 -131,-148 -86,-107 -77,-97 -186,-93l1 478 133 0 3 -246z"/>
  <path class="fil6" d="M3321 1303l213 245 102 0 -1 -478 -132 1 0 242c-21,-12 -190,-213 -214,-243l-106 1 1 477 134 -2 3 -243z"/>
  <path class="fil6" d="M4496 1257l-1 -80c46,-15 114,-9 115,39 0,49 -67,52 -114,41zm195 81c32,-34 54,-56 54,-123 -1,-61 -25,-98 -59,-121 -53,-34 -249,-32 -326,-24l1 478 134 -2 0 -181 61 1c23,31 60,170 82,182l136 -1 -83 -209z"/>
  <path class="fil6" d="M3773 1071c-5,63 -7,298 6,351 24,95 107,136 221,136 115,0 193,-45 218,-138 10,-38 11,-304 5,-350l-131 1c-17,206 49,366 -92,367 -93,0 -94,-56 -94,-141 0,-75 2,-151 0,-227l-133 1z"/>
  <path class="fil6" d="M1858 1215c15,19 40,101 46,130l-49 0 -22 0c-13,0 -7,0 -17,-4l42 -126zm-84 249l172 2 27 82 142 -2 -173 -476 -164 0 -172 478 142 0 26 -84z"/>
  <path class="fil6" d="M1419 1684c-132,0 -1168,10 -1200,-5 -16,-15 -8,-293 -8,-354l0 -611c0,-256 120,-413 261,-512 153,-109 409,-152 614,-67 171,70 315,209 370,401 43,154 22,597 22,795l0 318c0,42 -20,35 -59,35zm-1236 19c50,23 934,11 1113,11 248,0 213,31 213,-159 0,-249 0,-498 0,-747 0,-229 -10,-382 -187,-556 -314,-309 -797,-233 -1031,81 -136,183 -113,375 -113,634 0,127 -16,657 5,736z"/>
  <polygon class="fil6" points="2787,1395 3065,1395 3065,1289 2786,1290 "/>
  <path class="fil6" d="M585 1450c51,51 7,91 104,87l1 -165 -45 3 -4 83 -45 -86 -55 1 0 164 45 0 -1 -87z"/>
  <path class="fil6" d="M864 1453c15,12 7,3 18,22l31 62 55 0 1 -165 -45 1 0 86c-47,-42 -7,-96 -103,-85l0 163 45 0 -2 -84z"/>
  <path class="fil6" d="M1244 1409c43,0 40,37 -4,39l4 -39zm58 64c6,-19 52,-58 7,-90 -23,-16 -89,-13 -117,-9l-1 163 51 0c-2,-51 -5,-40 7,-53 46,23 -7,69 88,44l-35 -55z"/>
  <path class="fil6" d="M1009 1374c0,82 -22,166 69,165 92,0 74,-81 73,-167l-51 0c1,109 19,135 -38,123 -10,-38 -1,-82 -3,-123l-50 2z"/>
  <path class="fil6" d="M420 1471c2,-17 6,-38 18,-49l9 49 -27 0zm-7 37l43 0c3,19 -1,15 10,29l45 0 -45 -165 -61 1 -48 164 46 0 10 -29z"/>
  <path class="fil6" d="M724 1493c77,-8 62,-6 62,-41l-51 7c-9,3 -7,4 -11,8l0 26z"/>
  <path class="fil7" d="M925 1185l12 -1c9,16 5,30 6,52 26,1 26,-6 33,13 -15,10 -35,7 -55,4 -1,-21 -4,-52 4,-68zm-35 -1c22,5 15,4 15,36 0,30 7,30 -15,35 -9,-12 -9,-38 -7,-53 3,-20 1,-9 7,-18zm-189 1c24,4 17,3 17,35 0,31 7,30 -17,35l-6 -35c0,-33 0,-25 6,-35zm-353 -1c20,5 15,1 16,29 0,16 1,27 -4,40l-12 2c-7,-12 -9,-37 -6,-53 3,-20 1,-9 6,-18zm-58 0c13,16 7,6 8,51 31,5 24,-5 33,14 -16,9 -30,6 -53,5 -3,-71 -6,-62 12,-70zm982 70l22 -69c29,-1 24,-6 33,21 5,15 10,32 13,49 -35,-5 -7,-2 -32,-12 -27,8 -2,11 -36,11zm-801 0l22 -70 20 0c14,16 22,47 27,71 -56,-6 3,-21 -48,-4l-21 3zm631 -69l11 -1c13,23 -2,29 12,52 18,-4 15,1 16,-22 3,-33 -8,-21 14,-30 6,8 4,-2 7,12 0,3 1,15 1,18 0,13 -4,26 -7,36 -56,16 -76,-22 -54,-65zm-84 9c21,-10 30,-12 56,-5 22,45 1,44 0,66 -1,20 3,-13 4,22 -7,0 -8,2 -15,-1l-34 -26c-21,-14 -18,-30 -11,-56zm-285 59l0 -67c38,-5 67,-6 68,33 0,41 -31,39 -68,34zm-179 1c-7,-15 -7,-54 0,-69 32,2 10,0 17,11 12,21 -16,5 13,18 22,-12 -3,-19 23,-30 7,9 4,-1 7,13l1 40c-4,22 -1,9 -8,18 -22,-9 -1,-12 -23,-24 -32,14 9,20 -30,23zm801 -1c-8,-15 -5,-46 -4,-66 27,-4 28,9 40,26 14,-32 -11,-27 22,-28l3 69c-25,-1 -27,-11 -38,-28 -18,29 11,26 -23,27zm-106 -69c0,0 30,-2 6,35 -12,-5 -7,9 -11,-12 -4,-19 3,-20 5,-23zm-17 71c-28,-2 -21,0 -29,-23 -1,1 -2,2 -2,4 -3,13 -9,17 -23,18l-4 -67c82,-15 44,21 58,68zm-419 -65c16,-9 35,-7 57,-4 -2,22 -14,31 -26,45 24,16 17,-7 26,18 -14,9 -37,6 -57,5 2,-22 12,-33 25,-44l-20 -13c-1,-1 -4,-6 -5,-7zm-164 18c8,19 15,3 25,23 -1,1 -4,0 -5,2 -3,11 3,-5 -19,12 -9,8 11,13 -23,7l0 -65c21,-4 41,-7 55,3 -6,16 6,5 -21,13 -10,3 -6,1 -12,5zm-247 -18c17,-10 44,-9 61,0l-16 16c-1,0 -3,1 -4,2l-1 35c-2,10 -2,7 -5,12 -26,-5 -16,-15 -16,-47 -30,-19 -9,-8 -19,-18zm158 -592c5,-169 -23,-175 71,-174 127,1 104,2 171,-69 24,-25 40,-57 77,-25 79,70 61,95 140,94 31,0 88,-9 111,7 39,35 -7,143 27,180 101,110 140,75 26,189 -53,52 -39,29 -39,161 0,94 -122,22 -176,54 -34,20 -76,96 -119,102 -51,-24 -86,-108 -142,-108 -65,2 -72,-2 -139,-9 -21,-51 12,-143 -22,-179 -93,-99 -153,-84 14,-223zm745 -165c37,-9 5,16 5,32 30,22 2,-10 33,7 -5,19 -27,29 -52,40 -15,-28 -6,-10 9,-33 -15,-16 -8,-12 -32,-3l-5 -15 42 -28zm-906 63c-2,3 -1,15 -2,20 -22,-8 -43,-28 -52,-44 3,-6 4,-7 8,-12 21,-23 2,-9 18,-33 18,3 48,14 60,28 -13,17 1,12 -27,8 22,13 5,0 12,15 -22,30 24,-25 -11,10 -11,11 -2,-3 -6,8zm811 -96c9,-8 62,-34 72,-18 11,17 -21,59 -33,66 -11,-21 0,-20 -15,-32 -8,-8 -8,0 -24,-16zm-728 -5c-22,20 -20,-1 -31,21 -12,25 19,2 -14,25 -79,-114 30,-65 45,-46zm714 -93c20,12 15,3 9,36 27,-7 22,-13 37,5 0,0 -50,31 -66,25l20 -66zm-742 27c71,-58 109,10 42,50 -16,-9 -34,-33 -42,-50zm717 -50c1,18 -26,67 -41,53 -9,-9 1,-18 11,-32 11,-16 9,-21 30,-21zm-571 27c-22,4 -17,1 -35,-6 6,24 11,17 -5,29 -13,-9 -31,-37 -36,-58 20,-8 17,-14 42,-16l34 51zm9 -79c26,-10 43,8 66,47 -22,4 -16,0 -37,0 -17,22 5,14 -28,22l-1 -69zm475 51c-43,52 -28,-32 6,-45 19,17 6,11 17,34 9,-9 39,-34 26,6 -9,25 -19,35 -34,41l-15 -36zm-129 -88c96,5 63,100 -14,58l14 -58zm-207 59c2,-15 4,-27 7,-41 6,-25 0,-16 17,-27 26,7 35,38 43,62 -17,-1 -26,-6 -36,-4 -23,3 8,6 -31,10zm277 28c-9,-16 7,-46 18,-62 22,6 17,3 8,30 -1,3 -7,20 -8,22 -8,13 -2,8 -18,10zm-194 -36c-6,-16 -4,-49 6,-62 21,7 5,14 23,22 20,-8 6,-14 24,-22 8,9 4,-9 8,17l-8 49c-19,-11 -6,-17 -24,-26 -26,11 -1,21 -29,22zm-153 -10c-12,-27 13,-46 40,-29 -7,16 -11,9 -23,18 25,0 30,1 38,23 -11,18 -25,29 -49,17 6,-25 18,-6 27,-20l-33 -9zm-449 1433l1 -346 1224 -1 1 349c14,-19 13,-994 -3,-1074 -55,-271 -291,-487 -609,-487 -319,1 -553,215 -607,485 -13,67 -18,1044 -7,1074z"/>
  <path class="fil7" d="M854 878c-28,-5 -160,-138 -162,-160 -1,-23 133,-159 158,-162 26,-2 161,133 162,158 2,29 -130,156 -158,164zm-232 -391l0 85c0,57 -6,58 -35,86 -21,20 -38,41 -60,57 102,99 87,51 95,231 45,6 113,-11 147,12 28,19 53,60 85,82 29,-18 54,-55 83,-80 30,-26 103,-12 145,-13 5,-43 -11,-116 14,-145 15,-19 65,-67 83,-81 -14,-30 -48,-55 -72,-78 -37,-35 -21,-79 -24,-157 -43,-2 -117,13 -147,-13 -29,-23 -52,-59 -82,-81 -28,21 -54,59 -82,80 -32,26 -103,8 -150,15z"/>
  <path class="fil7" d="M765 721l87 81 85 -82 -81 -89c-22,11 -80,68 -91,90z"/>
  <path class="fil7" d="M1039 1204c-8,27 2,49 21,28 15,-17 -1,-29 -21,-28z"/>
  <path class="fil7" d="M780 1220c0,-19 -5,-15 -20,-18 -6,8 -6,-13 -7,18 0,28 4,12 7,17 14,-5 20,4 20,-17z"/>
  <path class="fil7" d="M479 332c13,21 3,15 24,22 26,-39 -18,-30 -24,-22z"/>
  <path class="fil7" d="M970 239c26,5 33,-13 8,-27 -14,9 -5,-14 -11,13 -7,27 0,7 3,14z"/>
  <path class="fil8" d="M1239 1614c0,-4 0,-15 1,-18 6,-16 -2,-1 9,-13 34,7 12,8 21,34l-31 -3zm-460 -28l32 0 5 34 -42 -1 5 -33zm-255 -1c24,7 1,5 24,29 1,1 4,2 4,3 1,1 3,2 5,3l-32 -1 -1 -34zm-123 -2c30,5 18,3 22,37l-30 -1c2,-22 -7,-18 8,-36zm907 36c7,-40 11,-30 17,-35 9,5 10,-8 19,36 -16,-3 -20,-5 -36,-1zm-190 1c4,-20 3,-25 19,-37 1,1 3,1 3,3 1,3 3,3 3,4l14 21c-9,6 -2,5 -16,7 -3,0 -15,0 -23,2zm-85 -32c2,34 -11,39 -36,24 -4,-31 12,-31 36,-24zm-216 32c11,-32 3,-24 20,-36 9,6 8,-4 18,36 -17,-4 -20,-5 -38,0zm-218 -6l0 -30c22,8 6,3 20,5l15 1 0 24 -35 0zm-41 6c7,-20 5,-26 20,-37 15,15 12,18 20,37 -21,-4 -19,-6 -40,0zm-92 -7c-18,10 -12,0 -39,7 6,-22 5,-27 21,-36l18 29zm395 6l0 -34c26,4 10,8 35,0l0 35c-18,-5 -13,-9 -24,-6 -37,11 27,5 -11,5zm338 -3c5,-22 0,-24 20,-32 12,15 10,16 15,36l-57 -4c-1,0 -3,0 -4,0l-16 -2 1 -30c29,12 6,13 35,0 -8,50 -4,22 6,32zm-812 4c-29,-9 -9,-9 -35,0l0 -36c31,12 3,14 34,0 -5,31 -6,10 1,36zm664 -18c9,11 8,0 14,3 16,6 1,-8 7,9 -17,10 -10,7 -32,2l0 -28c4,-1 13,-3 15,-3l17 5c-1,1 -3,0 -4,2 -2,6 -4,-2 -17,10zm222 -17l31 -2 -14 37 -17 -35zm-197 0c23,5 15,5 38,-1l-18 36 -20 -35zm-86 5c-9,17 -3,20 -18,29l-14 -30c10,-5 25,-3 32,1zm-238 6c7,6 5,9 6,10l4 8c1,1 3,3 3,3 1,1 3,2 4,3l-62 0c0,-5 -1,-14 0,-18 3,-20 1,-9 6,-17l13 27c17,-9 1,11 17,-27l26 -2c-1,2 -4,2 -4,4l-13 9zm-49 20l-29 5c1,-2 4,-6 4,-4 1,1 3,-3 4,-3 9,-16 6,7 1,-6 -2,-6 -4,4 -11,-20l19 6c6,16 3,-8 12,22zm-237 -3c4,-24 11,-39 34,-23 -12,8 -20,3 -18,15 3,15 4,-4 12,0 16,6 1,-8 8,9 -19,11 -16,7 -36,-1zm-63 -76l-46 0 48 -164 61 -1 45 165 -45 0c-11,-14 -7,-10 -10,-29l-43 0 -10 29zm606 -163l50 -2c2,41 -7,85 3,123 57,12 39,-14 38,-123l51 0c1,86 19,167 -73,167 -91,1 -69,-83 -69,-165zm-285 119l0 -26c4,-4 2,-5 11,-8l51 -7c0,35 15,33 -62,41zm142 44l-45 0 0 -163c96,-11 56,43 103,85l0 -86 45 -1 -1 165 -55 0 -31 -62c-11,-19 -3,-10 -18,-22l2 84zm-280 0l-45 0 0 -164 55 -1 45 86 4 -83 45 -3 -1 165c-97,4 -53,-36 -104,-87l1 87zm716 -64l35 55c-95,25 -42,-21 -88,-44 -12,13 -9,2 -7,53l-51 0 1 -163c28,-4 94,-7 117,9 45,32 -1,71 -7,90zm-1073 191c-11,-30 -6,-1007 7,-1074 54,-270 288,-484 607,-485 318,0 554,216 609,487 16,80 17,1055 3,1074l-1 -349 -1224 1 -1 346zm1190 20c39,0 59,7 59,-35l0 -318c0,-198 21,-641 -22,-795 -55,-192 -199,-331 -370,-401 -205,-85 -461,-42 -614,67 -141,99 -261,256 -261,512l0 611c0,61 -8,339 8,354 32,15 1068,5 1200,5z"/>
  <path class="fil8" d="M622 487c47,-7 118,11 150,-15 28,-21 54,-59 82,-80 30,22 53,58 82,81 30,26 104,11 147,13 3,78 -13,122 24,157 24,23 58,48 72,78 -18,14 -68,62 -83,81 -25,29 -9,102 -14,145 -42,1 -115,-13 -145,13 -29,25 -54,62 -83,80 -32,-22 -57,-63 -85,-82 -34,-23 -102,-6 -147,-12 -8,-180 7,-132 -95,-231 22,-16 39,-37 60,-57 29,-28 35,-29 35,-86l0 -85zm-62 111c-167,139 -107,124 -14,223 34,36 1,128 22,179 67,7 74,11 139,9 56,0 91,84 142,108 43,-6 85,-82 119,-102 54,-32 176,40 176,-54 0,-132 -14,-109 39,-161 114,-114 75,-79 -26,-189 -34,-37 12,-145 -27,-180 -23,-16 -80,-7 -111,-7 -79,1 -61,-24 -140,-94 -37,-32 -53,0 -77,25 -67,71 -44,70 -171,69 -94,-1 -66,5 -71,174z"/>
  <path class="fil8" d="M765 721c11,-22 69,-79 91,-90l81 89 -85 82 -87 -81zm89 157c28,-8 160,-135 158,-164 -1,-25 -136,-160 -162,-158 -25,3 -159,139 -158,162 2,22 134,155 162,160z"/>
  <path class="fil8" d="M1060 1232c-19,21 -29,-1 -21,-28 20,-1 36,11 21,28zm3 44c7,3 8,1 15,1 -1,-35 -5,-2 -4,-22 1,-22 22,-21 0,-66 -26,-7 -35,-5 -56,5 -7,26 -10,42 11,56l34 26z"/>
  <path class="fil8" d="M1355 1253c34,-1 5,2 23,-27 11,17 13,27 38,28l-3 -69c-33,1 -8,-4 -22,28 -12,-17 -13,-30 -40,-26 -1,20 -4,51 4,66z"/>
  <path class="fil8" d="M760 1237c-3,-5 -7,11 -7,-17 1,-31 1,-10 7,-18 15,3 20,-1 20,18 0,21 -6,12 -20,17zm-27 16c37,5 68,7 68,-34 -1,-39 -30,-38 -68,-33l0 67z"/>
  <path class="fil8" d="M607 1255c7,-9 4,4 8,-18l-1 -40c-3,-14 0,-4 -7,-13 -26,11 -1,18 -23,30 -29,-13 -1,3 -13,-18 -7,-11 15,-9 -17,-11 -7,15 -7,54 0,69 39,-3 -2,-9 30,-23 22,12 1,15 23,24z"/>
  <path class="fil8" d="M492 1251c51,-17 -8,-2 48,4 -5,-24 -13,-55 -27,-71l-20 0 -22 70 21 -3z"/>
  <path class="fil8" d="M978 212c25,14 18,32 -8,27 -3,-7 -10,13 -3,-14 6,-27 -3,-4 11,-13zm-37 36c77,42 110,-53 14,-58l-14 58z"/>
  <path class="fil8" d="M503 354c-21,-7 -11,-1 -24,-22 6,-8 50,-17 24,22zm-49 -25c8,17 26,41 42,50 67,-40 29,-108 -42,-50z"/>
  <path class="fil8" d="M1263 461l5 15c24,-9 17,-13 32,3 -15,23 -24,5 -9,33 25,-11 47,-21 52,-40 -31,-17 -3,15 -33,-7 0,-16 32,-41 -5,-32l-42 28z"/>
  <path class="fil8" d="M437 441c33,-23 2,0 14,-25 11,-22 9,-1 31,-21 -15,-19 -124,-68 -45,46z"/>
  <path class="fil8" d="M748 249c39,-4 8,-7 31,-10 10,-2 19,3 36,4 -8,-24 -17,-55 -43,-62 -17,11 -11,2 -17,27 -3,14 -5,26 -7,41z"/>
  <path class="fil8" d="M870 1186c-22,-3 -41,-5 -57,4 1,1 4,6 5,7l20 13c-13,11 -23,22 -25,44 20,1 43,4 57,-5 -9,-25 -2,-2 -26,-18 12,-14 24,-23 26,-45z"/>
  <path class="fil8" d="M831 241c28,-1 3,-11 29,-22 18,9 5,15 24,26l8 -49c-4,-26 0,-8 -8,-17 -18,8 -4,14 -24,22 -18,-8 -2,-15 -23,-22 -10,13 -12,46 -6,62z"/>
  <path class="fil8" d="M921 1253c20,3 40,6 55,-4 -7,-19 -7,-12 -33,-13 -1,-22 3,-36 -6,-52l-12 1c-8,16 -5,47 -4,68z"/>
  <path class="fil8" d="M463 1190c-17,-9 -44,-10 -61,0 10,10 -11,-1 19,18 0,32 -10,42 16,47 3,-5 3,-2 5,-12l1 -35c1,-1 3,-2 4,-2l16 -16z"/>
  <path class="fil8" d="M290 1184c-18,8 -15,-1 -12,70 23,1 37,4 53,-5 -9,-19 -2,-9 -33,-14 -1,-45 5,-35 -8,-51z"/>
  <path class="fil8" d="M1176 368c16,6 66,-25 66,-25 -15,-18 -10,-12 -37,-5 6,-33 11,-24 -9,-36l-20 66z"/>
  <path class="fil8" d="M1171 279c-21,0 -19,5 -30,21 -10,14 -20,23 -11,32 15,14 42,-35 41,-53z"/>
  <path class="fil8" d="M1240 1448c44,-2 47,-39 4,-39l-4 39z"/>
  <polygon class="fil9" points="774,1619 816,1620 811,1586 779,1586 "/>
  <path class="fil10" d="M1033 1588c-24,-7 -40,-7 -36,24 25,15 38,10 36,-24z"/>
  <path class="fil11" d="M552 1617c0,-1 -3,-2 -4,-3 -23,-24 0,-22 -24,-29l1 34 32 1c-2,-1 -4,-2 -5,-3z"/>
 </g>
</svg>
